
      <svg xmlns="http://www.w3.org/2000/svg" width="1024" height="1024" viewBox="0 0 1024 1024">
        
      <defs>
        <linearGradient id="grad1" x1="0%" y1="0%" x2="100%" y2="100%">
          <stop offset="0%" style="stop-color:#60a5fa" />
          <stop offset="100%" style="stop-color:#3b82f6" />
        </linearGradient>
      </defs>
    
        <rect x="0" y="0" width="1024" height="1024" rx="256" ry="256" fill="url(#grad1)" />
        <g transform="translate(512, 512) rotate(0)">
           <g transform="translate(-400, -400)">
             <svg xmlns="http://www.w3.org/2000/svg" width="800" height="800" viewBox="0 0 24 24" fill="#ffffff" stroke="#ffffff" stroke-width="1.08" stroke-linecap="round" stroke-linejoin="round" class="lucide lucide-stethoscope" fill-opacity="0"><path d="M11 2v2"></path><path d="M5 2v2"></path><path d="M5 3H4a2 2 0 0 0-2 2v4a6 6 0 0 0 12 0V5a2 2 0 0 0-2-2h-1"></path><path d="M8 15a6 6 0 0 0 12 0v-3"></path><circle cx="20" cy="10" r="2"></circle></svg>
           </g>
        </g>
      </svg>
    